<svg width="32" height="32" viewBox="0 0 32 32" fill="none" xmlns="http://www.w3.org/2000/svg">
<path d="M23.7112 13.0011H24.8828C25.0103 12.9967 25.1374 13.0188 25.2561 13.0659C25.3747 13.1131 25.4823 13.1842 25.5721 13.275C25.6618 13.3657 25.7318 13.4741 25.7777 13.5932C25.8236 13.7123 25.8443 13.8396 25.8385 13.9672C25.8385 14.4399 25.8385 14.9024 25.8385 15.3751C25.834 15.4607 25.834 15.5464 25.8385 15.632C26.0749 15.632 26.301 15.632 26.5168 15.632C26.7147 15.6183 26.9132 15.6472 27.0989 15.7167C27.2847 15.7863 27.4534 15.8948 27.5936 16.0351C27.7339 16.1753 27.8424 16.344 27.912 16.5298C27.9815 16.7155 28.0104 16.914 27.9967 17.1119C27.9967 18.8487 27.9967 20.5855 27.9967 22.312C27.9967 22.9179 27.8769 23.5178 27.6441 24.0772C27.4113 24.6365 27.0702 25.1443 26.6403 25.5713C26.2105 25.9983 25.7004 26.336 25.1395 26.565C24.5786 26.7941 23.9779 26.9099 23.3721 26.9058H18.6138C18.5254 26.9214 18.435 26.9214 18.3466 26.9058C18.2546 26.8771 18.1742 26.8197 18.1171 26.7421C18.06 26.6644 18.0292 26.5706 18.0292 26.4742C18.0292 26.3778 18.06 26.284 18.1171 26.2063C18.1742 26.1287 18.2546 26.0713 18.3466 26.0426C18.4523 26.0274 18.5596 26.0274 18.6652 26.0426H23.3721C24.2248 26.0577 25.0554 25.771 25.7173 25.2332C26.3792 24.6954 26.8298 23.9411 26.9895 23.1034C27.0484 22.8369 27.076 22.5644 27.0718 22.2915C27.0718 20.6266 27.0718 18.9618 27.0718 17.2969C27.0718 16.8241 26.9176 16.67 26.4449 16.67H5.57237C5.08936 16.67 4.9352 16.8241 4.9352 17.2969V22.1784C4.92101 22.6762 5.0086 23.1717 5.1926 23.6345C5.37661 24.0972 5.65315 24.5176 6.0053 24.8697C6.35744 25.2219 6.77777 25.4984 7.24054 25.6824C7.7033 25.8664 8.19876 25.954 8.69657 25.9398H14.5339C14.8525 25.9398 19.6724 25.8165 19.6724 26.0837C19.6724 26.3509 19.2716 26.875 18.9632 26.875C16.9079 26.875 10.4745 26.875 8.43964 26.875C7.34666 26.8569 6.29666 26.4462 5.48152 25.7178C4.66637 24.9895 4.1405 23.9922 4 22.9081C4.00925 22.8571 4.00925 22.8049 4 22.754V16.8036C4.10348 16.5522 4.23081 16.3113 4.38025 16.0842C4.49238 15.9429 4.63438 15.8282 4.79606 15.7482C4.95774 15.6683 5.13511 15.6251 5.31545 15.6217C5.58265 15.6217 5.84985 15.6217 6.14788 15.6217C6.14788 15.5395 6.14788 15.4573 6.14788 15.3854V14.0288C6.13441 13.8949 6.15 13.7597 6.19357 13.6324C6.23714 13.5051 6.30768 13.3886 6.40037 13.2911C6.49305 13.1935 6.6057 13.1171 6.73062 13.0671C6.85554 13.017 6.98979 12.9945 7.12419 13.0011H8.02857M7.08309 15.6115H24.893V13.9569H7.08309V15.6115Z" fill="#24375B"/>
<path d="M16.0037 23.7809H10.0739C9.92427 23.8035 9.77143 23.7906 9.62769 23.7434C9.48395 23.6961 9.35332 23.6158 9.24632 23.5088C9.13933 23.4018 9.05897 23.2711 9.01171 23.1274C8.96445 22.9837 8.95161 22.8308 8.97424 22.6812C8.97424 21.7049 8.97424 20.7389 8.97424 19.7728C8.9616 19.6347 8.97951 19.4955 9.02669 19.3651C9.07386 19.2347 9.14916 19.1162 9.24723 19.0181C9.34531 18.9201 9.46376 18.8448 9.59418 18.7976C9.72461 18.7504 9.86382 18.7325 10.0019 18.7451H21.9849C22.1226 18.7343 22.261 18.7535 22.3906 18.8013C22.5202 18.8491 22.6379 18.9245 22.7356 19.0221C22.8332 19.1198 22.9086 19.2375 22.9564 19.3671C23.0042 19.4967 23.0234 19.6351 23.0126 19.7728V22.7223C23.0252 22.8604 23.0073 22.9997 22.9601 23.1301C22.9129 23.2605 22.8376 23.379 22.7396 23.477C22.6415 23.5751 22.523 23.6504 22.3926 23.6976C22.2622 23.7448 22.123 23.7627 21.9849 23.75L16.0037 23.7809ZM9.91972 22.8354H22.0774V19.6701H9.91972V22.8354Z" fill="#24375B"/>
<path d="M16.0033 20.7808H19.7544C19.8637 20.795 19.9646 20.847 20.0396 20.9276C20.1147 21.0083 20.1592 21.1127 20.1655 21.2227C20.1687 21.3281 20.1358 21.4314 20.0722 21.5155C20.0087 21.5996 19.9183 21.6595 19.8161 21.6852C19.741 21.6952 19.665 21.6952 19.59 21.6852H12.3961C12.0158 21.6852 11.7795 21.4694 11.8103 21.1611C11.8411 20.8528 12.0467 20.75 12.3755 20.75H15.9828L16.0033 20.7808Z" fill="#24375B"/>
</svg>
