<svg width="32" height="32" viewBox="0 0 32 32" fill="none" xmlns="http://www.w3.org/2000/svg">
<g clip-path="url(#clip0_417_52)">
<path d="M3.92018 16.6699V15.7599C3.66018 15.6799 3.44018 15.5499 3.45018 15.2299C3.46018 14.9099 3.67018 14.8199 3.93018 14.7499V13.5399C3.93018 12.9799 4.07018 12.8399 4.62018 12.8399H4.84018C4.84018 12.5999 4.84018 12.3699 4.93018 12.1499C5.03122 11.7794 5.20537 11.4328 5.44236 11.1305C5.67936 10.8283 5.97442 10.5765 6.31018 10.3899C6.77018 10.0799 7.31018 9.82994 7.71018 9.49994C7.92821 9.28983 8.12886 9.06242 8.31018 8.81994C8.4376 8.67793 8.59948 8.57116 8.78018 8.50994C8.99018 8.50994 9.15018 8.62994 9.23018 8.83994L9.29018 8.99994C9.46396 9.57432 9.82548 10.0738 10.3168 10.4183C10.8082 10.7627 11.401 10.9324 12.0002 10.8999C12.4302 10.8999 12.8602 10.8999 13.2902 10.8999C14.3776 10.8635 15.455 11.119 16.4102 11.6399C16.3202 11.4799 16.2202 11.3199 16.1402 11.1599C16.0998 11.104 16.0722 11.0399 16.0594 10.9721C16.0466 10.9043 16.0488 10.8345 16.066 10.7677C16.0832 10.7009 16.1149 10.6387 16.1588 10.5855C16.2027 10.5323 16.2578 10.4894 16.3202 10.4599L20.4702 8.07994C20.7702 7.90994 21.0002 8.00994 21.2102 8.35994L24.7102 14.3099L29.7802 22.9399L29.9102 23.1799C29.9561 23.2379 29.9879 23.3058 30.0032 23.3781C30.0186 23.4505 30.017 23.5254 29.9986 23.597C29.9802 23.6687 29.9455 23.7351 29.8972 23.7911C29.8489 23.8471 29.7883 23.8912 29.7202 23.9199L25.5802 26.2699C25.2402 26.4599 25.0202 26.3699 24.7902 25.9799L20.5302 18.7299L20.3802 18.4699C20.3802 18.5899 20.3802 18.6599 20.3802 18.7299V24.2599C20.4046 24.5419 20.367 24.8257 20.2701 25.0916C20.1732 25.3574 20.0193 25.5989 19.8192 25.7989C19.6191 25.999 19.3777 26.1529 19.1118 26.2498C18.8459 26.3468 18.5621 26.3843 18.2802 26.3599H4.09018C3.80997 26.3826 3.52819 26.3441 3.26434 26.247C3.00049 26.15 2.76087 25.9968 2.56209 25.798C2.36331 25.5992 2.2101 25.3596 2.11308 25.0958C2.01605 24.8319 1.97753 24.5501 2.00018 24.2699V18.9999C1.95286 18.7177 1.96667 18.4285 2.04068 18.1521C2.11469 17.8756 2.24717 17.6182 2.42918 17.3974C2.61119 17.1765 2.83848 16.9973 3.0957 16.8718C3.35292 16.7463 3.63408 16.6774 3.92018 16.6699ZM3.00018 19.1099H14.8902C15.3602 19.1099 15.5202 19.2799 15.5202 19.7499V23.2199C15.5202 23.8099 15.3902 23.9399 14.8002 23.9399H3.00018C2.86018 24.9399 3.33018 25.4099 4.28018 25.3999C8.95018 25.3999 13.6202 25.3999 18.2802 25.3999C18.4302 25.4176 18.5823 25.401 18.725 25.3515C18.8677 25.3019 18.9973 25.2207 19.1041 25.1139C19.211 25.0071 19.2922 24.8775 19.3417 24.7347C19.3913 24.592 19.4078 24.44 19.3902 24.2899V18.8399C19.3902 18.0199 19.0402 17.6599 18.2202 17.6599H3.91018C3.66875 17.6737 3.44047 17.7745 3.26765 17.9436C3.09482 18.1128 2.98914 18.3388 2.97018 18.5799C3.00018 18.7499 3.00018 18.9099 3.00018 19.1099ZM25.5002 25.2199L28.8902 23.2899L20.5502 9.13994L17.1602 11.0699L25.5002 25.2199ZM3.00018 20.0899V22.9999H14.5402V20.0899H3.00018ZM4.91018 16.6799H17.4302V15.7299H10.9202C10.8204 15.7399 10.7199 15.7399 10.6202 15.7299C10.5623 15.7249 10.506 15.7085 10.4545 15.6816C10.403 15.6547 10.3574 15.6179 10.3202 15.5733C10.283 15.5286 10.255 15.4771 10.2379 15.4216C10.2207 15.3661 10.2147 15.3078 10.2202 15.2499C10.2144 15.138 10.2515 15.0281 10.324 14.9426C10.3965 14.8571 10.4988 14.8025 10.6102 14.7899C10.7099 14.78 10.8104 14.78 10.9102 14.7899H17.4402V13.8199H4.92018V14.7699H7.78018C7.91279 14.7699 8.03997 14.8226 8.13374 14.9164C8.22751 15.0102 8.28018 15.1373 8.28018 15.2699C8.28018 15.4025 8.22751 15.5297 8.13374 15.6235C8.03997 15.7173 7.91279 15.7699 7.78018 15.7699H4.91018V16.6799ZM8.70018 9.99994C8.18018 10.3299 7.70018 10.6299 7.19018 10.9999C6.83524 11.2495 6.50084 11.527 6.19018 11.8299C6.06344 11.9602 5.97 12.1191 5.91777 12.2932C5.86555 12.4673 5.85608 12.6514 5.89018 12.8299H16.1002C15.8201 12.4762 15.4349 12.2206 15.0002 12.0999C14.1202 11.8885 13.2133 11.8109 12.3102 11.8699C11.5921 11.9408 10.8688 11.8019 10.228 11.47C9.58726 11.1381 9.05654 10.6274 8.70018 9.99994ZM19.5002 16.9999L18.7202 15.6699L18.4402 15.7899V16.6699L19.5002 16.9999Z" fill="#24375B"/>
</g>
<defs>
<clipPath id="clip0_417_52">
<rect width="28.01" height="18.36" fill="white" transform="translate(2 8)"/>
</clipPath>
</defs>
</svg>
