<svg width="160" height="160" viewBox="0 0 160 160" fill="none" xmlns="http://www.w3.org/2000/svg">
<path d="M77.224 27.3714C88.1158 27.2255 98.7873 30.4439 107.782 36.5874H108.16C111.447 39.1204 111.501 39.1204 113.549 35.5095C115.02 32.6612 115.9 29.5446 116.136 26.3474C116.136 25.8084 116.136 25 116.837 25C117.537 25 117.429 25.8084 117.429 26.3474C117.42 28.4158 117.655 30.4782 118.13 32.4914C118.979 35.5149 120.689 38.2259 123.053 40.2932C125.417 42.3605 128.332 43.6946 131.442 44.1326C132.736 44.1326 135.053 44.1326 134.999 45.0488C134.945 45.965 132.843 45.965 131.658 46.2884C128.583 46.8942 125.677 48.1633 123.142 50.0071C122.28 50.6539 121.903 51.0311 122.603 52.1629C126.507 58.3947 129.076 65.3681 130.149 72.6429C130.831 77.8608 130.685 83.1537 129.717 88.3262C128.284 97.2458 124.589 105.649 118.984 112.735C113.38 119.82 106.054 125.352 97.704 128.801C90.8655 131.578 83.5236 132.899 76.1461 132.682C65.4388 132.446 55.0738 128.865 46.504 122.442C36.0563 114.986 28.8471 103.826 26.3474 91.2365C24.5254 83.4738 24.5516 75.3916 26.4237 67.6408C28.2959 59.89 31.9618 52.687 37.1264 46.6118C44.7118 37.2307 55.2913 30.7422 67.0918 28.2337C70.4093 27.455 73.8226 27.1645 77.224 27.3714ZM127.993 92.8534C124.274 93.7157 120.663 88.3262 116.89 87.7873C114.131 87.0768 111.221 87.2082 108.537 88.1646C107.836 88.1646 106.92 88.7574 106.812 89.5658C106.704 90.3742 107.728 90.7515 108.375 91.0749L111.124 92.2067C112.833 92.7204 114.465 93.4637 115.974 94.4163C116.595 94.8532 117.067 95.4695 117.327 96.1824C117.587 96.8953 117.623 97.6707 117.429 98.4045C117.106 99.7519 115.92 100.183 114.735 100.56C113.352 100.884 111.913 100.884 110.531 100.56C106.56 99.6472 102.865 97.7995 99.752 95.1709C97.272 93.1229 94.6009 91.3181 91.7756 89.7814C91.0921 89.3538 90.3138 89.1012 89.5095 89.0461C88.7051 88.9909 87.8996 89.135 87.1642 89.4654C86.4288 89.7958 85.7862 90.3024 85.2933 90.9403C84.8003 91.5783 84.4723 92.3279 84.3381 93.1229C84.004 95.6266 84.3249 98.1742 85.2695 100.517C86.2141 102.859 87.7501 104.917 89.7276 106.489C96.1007 111.721 103.969 114.797 112.202 115.274C113.076 115.382 113.962 115.237 114.756 114.854C115.549 114.472 116.215 113.869 116.675 113.118C118.882 110.397 120.881 107.515 122.657 104.495C125.454 99.4918 127.282 94.0065 128.047 88.3262C128.047 88.3262 128.101 92.7995 127.993 92.8534ZM33.731 53.7259H34.755C43.7215 54.815 52.6129 56.4529 61.379 58.6303C63.9962 59.0384 66.4633 60.1163 68.5409 61.7595C70.6184 63.4027 72.2358 65.5552 73.2358 68.0079C74.4754 71.2955 73.2358 72.9663 69.7865 73.3974C66.9139 73.3272 64.0728 72.7808 61.379 71.7806C57.4061 70.1897 53.0377 69.8696 48.8754 70.8644C48.1209 71.1338 47.1508 71.1338 46.9891 72.2656C46.8274 73.3974 47.5819 74.0441 48.4981 74.5831C52.3024 76.6778 56.3854 78.2203 60.6244 79.1641C66.315 80.1653 71.7868 82.1534 76.7928 85.0387C77.8584 85.6329 78.6674 86.5992 79.0652 87.7527C79.4629 88.9061 79.4214 90.1657 78.9486 91.2904C78.47 92.289 77.7926 93.1793 76.9579 93.9069C76.1233 94.6346 75.1489 95.1842 74.0945 95.5223C73.04 95.8603 71.9277 95.9796 70.8255 95.8728C69.7234 95.7661 68.6546 95.4355 67.6846 94.9014C62.5857 91.4936 57.0099 88.8601 51.139 87.0867C44.7266 84.8035 37.7075 84.8991 31.3596 87.3561C26.4013 89.458 27.1558 88.3262 28.1259 93.7157C28.1259 94.6858 28.7188 95.0631 29.9045 94.8475C35.2571 93.956 40.7203 93.956 46.0729 94.8475C56.376 97.0484 66.2937 100.772 75.4994 105.896C82.9368 109.884 90.6977 114.303 99.1052 117.537C102.878 118.832 106.89 119.274 110.854 118.831C111.77 118.831 112.687 118.076 112.687 117.322C112.687 116.567 111.555 116.837 110.908 116.729C103.655 116.092 96.6919 113.585 90.6977 109.453C88.4196 107.903 86.5327 105.845 85.1859 103.442C83.8391 101.038 83.0691 98.3541 82.9368 95.602C82.8071 94.7697 82.844 93.9198 83.0455 93.1019C83.2469 92.2839 83.6088 91.5141 84.1103 90.8372C84.6117 90.1603 85.2426 89.5898 85.9663 89.1587C86.6901 88.7277 87.4923 88.4447 88.3263 88.3262C90.2332 88.1258 92.148 88.6236 93.7158 89.7275C97.704 92.0989 101.099 95.117 105.195 97.4883C107.757 99.0746 110.762 99.7928 113.765 99.5363C114.896 99.5363 115.866 98.7818 116.028 97.5961C116.101 97.0576 115.978 96.5108 115.681 96.0557C115.384 95.6005 114.934 95.2673 114.411 95.117L108.698 92.6917C107.243 92.0989 105.141 91.8294 105.141 89.8353C105.141 87.8412 107.297 87.3022 108.914 86.6016H109.722C112.515 86.0427 115.391 86.0427 118.184 86.6016C120.965 87.1949 123.827 87.3043 126.645 86.925C127.279 86.8443 127.858 86.5274 128.268 86.0378C128.678 85.5481 128.887 84.9218 128.855 84.2841C129.261 79.047 128.88 73.7786 127.723 68.6547C127.454 67.7385 127.238 67.6307 126.43 67.9541C123.355 69.0483 120.177 69.8248 116.944 70.2715C108.197 71.4802 99.2956 69.7756 91.6139 65.421C83.3141 60.7322 75.3916 55.2888 66.7684 51.1928C59.2402 47.6016 51.0647 45.5669 42.7314 45.2105C42.1693 45.1132 41.5935 45.1299 41.038 45.2595C40.4825 45.3891 39.9587 45.6291 39.4977 45.965C37.1523 48.2089 35.2027 50.8328 33.731 53.7259ZM36.3718 95.2786C34.5554 95.423 32.7532 95.7114 30.9824 96.141C29.3116 96.141 29.2577 96.6799 29.7967 97.9734C32.2499 104.51 36.0167 110.474 40.8646 115.498C45.7126 120.522 51.5388 124.5 57.9836 127.184C67.1721 131.185 77.3605 132.294 87.1945 130.364C94.3494 129.08 101.137 126.248 107.082 122.064C107.567 121.687 108.375 121.471 108.106 120.663C107.836 119.855 107.136 120.232 106.597 120.178C106.058 120.124 104.225 120.178 102.986 119.909C98.4118 118.873 94.0166 117.166 89.9431 114.842C80.6733 110.154 71.5112 105.141 61.9179 101.045C53.8676 97.4531 45.1847 95.493 36.3718 95.2786ZM26.3474 79.5953C26.339 81.7927 26.465 83.9885 26.7247 86.1704C26.9942 87.5178 27.1019 88.0029 28.5032 87.1406C33.4319 84.4369 39.1264 83.4688 44.6716 84.3919C52.7554 85.4554 60.4641 88.4501 67.1457 93.1229C68.2887 93.9534 69.6406 94.4489 71.0496 94.5536C72.4586 94.6583 73.8689 94.3682 75.1221 93.7157C75.8257 93.461 76.4474 93.0209 76.9213 92.4418C77.3952 91.8627 77.7038 91.1662 77.8142 90.4261C77.9247 89.686 77.833 88.9298 77.5488 88.2376C77.2646 87.5454 76.7986 86.9428 76.2 86.4938C73.2659 84.6092 70.0942 83.1231 66.7684 82.0745C60.0138 80.9122 53.4844 78.6933 47.4202 75.4993C46.9049 75.2805 46.4606 74.9226 46.137 74.4658C45.8134 74.0089 45.6233 73.4711 45.5878 72.9124C45.4917 72.1657 45.6833 71.4104 46.1237 70.7999C46.5641 70.1893 47.2203 69.7692 47.9592 69.6248C52.39 68.4314 57.0835 68.6576 61.379 70.2715C64.0545 71.4307 66.9259 72.0708 69.8404 72.1578C72.104 72.1578 72.8585 70.8105 71.9423 68.7086C70.8374 65.7642 68.6892 63.3284 65.9061 61.864C62.1028 60.0986 58.0483 58.935 53.8876 58.4147C47.4741 57.2829 41.1146 55.9894 34.4316 55.2349C33.8959 55.0952 33.3273 55.1617 32.8383 55.4211C32.3492 55.6806 31.9754 56.1142 31.7908 56.6362C28.2266 63.7658 26.3634 71.6245 26.3474 79.5953ZM52.5402 35.2939C55.3428 35.9406 57.6602 36.264 59.8699 36.9646C69.0696 40.4228 77.6163 45.4159 85.1465 51.7318C89.427 55.364 94.1106 58.4924 99.1052 61.0555C103.629 63.1765 108.62 64.1042 113.603 63.7503C114.519 63.7503 115.866 63.7503 115.597 62.2412C114.142 53.5103 109.884 45.5339 99.1052 45.7494C98.5663 45.7494 97.7579 45.7494 97.704 45.2105C97.6501 44.6716 98.4585 44.5099 98.9974 44.4021C102.376 43.8893 105.64 42.7953 108.645 41.1684C109.884 40.4139 110.1 39.821 108.645 38.9048C105.647 36.757 102.453 34.8983 99.1052 33.3537C90.2147 29.2031 80.3153 27.706 70.5949 29.0421C64.2132 29.8722 58.0688 31.9998 52.5402 35.2939ZM41.7613 43.5937C45.8153 43.8792 49.8474 44.4192 53.8337 45.2105C63.9121 48.0607 73.4789 52.4803 82.1823 58.3069C89.6788 63.8454 98.3756 67.5383 107.567 69.0858C113.681 69.5906 119.833 68.8009 125.621 66.7684C126.376 66.7684 127.184 65.9599 126.807 65.0437C126.29 62.9598 125.511 60.9497 124.49 59.0614C124.237 59.2142 124.002 59.395 123.789 59.6004C121.678 61.6722 119.214 63.3512 116.513 64.5587C114.801 65.2305 112.946 65.4531 111.124 65.2054C104.677 64.8738 98.4386 62.8069 93.069 59.2231C84.9848 53.8336 77.4935 47.0968 68.8164 42.2463C63.7813 39.3046 58.178 37.4675 52.3785 36.8568C51.1022 36.5737 49.7657 36.8061 48.6598 37.5036C46.1299 39.3195 43.7671 41.3576 41.5996 43.5937H41.7613ZM116.19 57.6602C117.177 54.6114 118.928 51.8664 121.278 49.687C123.627 47.5075 126.496 45.9664 129.61 45.2105C126.467 44.5351 123.577 42.9893 121.271 40.7498C118.964 38.5102 117.334 35.6671 116.567 32.5453C115.588 35.5514 113.847 38.253 111.514 40.3874C109.182 42.5217 106.336 44.0162 103.255 44.7254C106.363 45.5444 109.197 47.1731 111.47 49.4455C113.742 51.7179 115.371 54.5526 116.19 57.6602ZM116.998 61.2172C116.998 61.6484 116.998 62.6724 117.914 62.1873C120.261 61.513 122.275 59.997 123.573 57.9296C124.328 56.4745 122.496 55.181 121.903 53.8336C121.779 53.5709 121.635 53.3186 121.472 53.0791C120.986 52.2707 120.501 52.1629 119.909 53.0791C118.244 55.551 117.242 58.4088 116.998 61.3789V61.2172Z" fill="white" stroke="white" stroke-width="3" stroke-miterlimit="10"/>
</svg>
