<svg width="32" height="32" viewBox="0 0 32 32" fill="none" xmlns="http://www.w3.org/2000/svg">
<path d="M15.4448 5.47427C17.6232 5.44509 19.7575 6.08877 21.5565 7.31747H21.6319C22.2894 7.82408 22.3002 7.82408 22.7098 7.10189C23.0041 6.53223 23.1801 5.90892 23.2272 5.26947C23.2272 5.16168 23.2272 5 23.3673 5C23.5074 5 23.4859 5.16168 23.4859 5.26947C23.4839 5.68317 23.5309 6.09564 23.626 6.49827C23.7957 7.10299 24.1379 7.64519 24.6107 8.05865C25.0835 8.47211 25.6665 8.73893 26.2884 8.82652C26.5471 8.82652 27.0106 8.82652 26.9998 9.00976C26.989 9.19301 26.5687 9.19301 26.3315 9.25768C25.7165 9.37885 25.1353 9.63266 24.6284 10.0014C24.456 10.1308 24.3805 10.2062 24.5207 10.4326C25.3014 11.6789 25.8152 13.0736 26.0297 14.5286C26.1662 15.5722 26.1371 16.6307 25.9435 17.6652C25.6568 19.4492 24.9177 21.1298 23.7969 22.547C22.676 23.9641 21.2107 25.0703 19.5408 25.7602C18.1731 26.3155 16.7047 26.5798 15.2292 26.5363C13.0878 26.4891 11.0148 25.773 9.30081 24.4883C7.21127 22.9973 5.76942 20.7651 5.26948 18.2473C4.90508 16.6948 4.91031 15.0783 5.28475 13.5282C5.65919 11.978 6.39237 10.5374 7.42527 9.32235C8.94236 7.44614 11.0583 6.14843 13.4184 5.64674C14.0819 5.49099 14.7645 5.4329 15.4448 5.47427ZM25.5986 18.5707C24.8548 18.7431 24.1326 17.6652 23.3781 17.5575C22.8261 17.4154 22.2443 17.4416 21.7074 17.6329C21.5672 17.6329 21.384 17.7515 21.3624 17.9132C21.3409 18.0748 21.5457 18.1503 21.675 18.215L22.2247 18.4413C22.5666 18.5441 22.893 18.6927 23.1948 18.8833C23.319 18.9706 23.4134 19.0939 23.4654 19.2365C23.5174 19.3791 23.5246 19.5341 23.4859 19.6809C23.4212 19.9504 23.1841 20.0366 22.9469 20.1121C22.6704 20.1768 22.3827 20.1768 22.1062 20.1121C21.312 19.9294 20.573 19.5599 19.9504 19.0342C19.4544 18.6246 18.9202 18.2636 18.3551 17.9563C18.2184 17.8708 18.0628 17.8202 17.9019 17.8092C17.741 17.7982 17.5799 17.827 17.4328 17.8931C17.2858 17.9592 17.1572 18.0605 17.0587 18.1881C16.9601 18.3157 16.8945 18.4656 16.8676 18.6246C16.8008 19.1253 16.865 19.6348 17.0539 20.1034C17.2428 20.5719 17.55 20.9834 17.9455 21.2977C19.2201 22.3442 20.7939 22.9594 22.4403 23.0547C22.6151 23.0764 22.7925 23.0473 22.9511 22.9709C23.1098 22.8944 23.2431 22.7738 23.335 22.6236C23.7764 22.0794 24.1763 21.5029 24.5314 20.8989C25.0908 19.8984 25.4565 18.8013 25.6093 17.6652C25.6093 17.6652 25.6201 18.5599 25.5986 18.5707ZM6.7462 10.7452H6.951C8.74431 10.963 10.5226 11.2906 12.2758 11.7261C12.7992 11.8077 13.2927 12.0233 13.7082 12.3519C14.1237 12.6805 14.4472 13.111 14.6472 13.6016C14.8951 14.2591 14.6472 14.5933 13.9573 14.6795C13.3828 14.6654 12.8146 14.5562 12.2758 14.3561C11.4812 14.0379 10.6075 13.9739 9.77508 14.1729C9.62417 14.2268 9.43015 14.2268 9.39782 14.4531C9.36548 14.6795 9.51638 14.8088 9.69963 14.9166C10.4605 15.3356 11.2771 15.6441 12.1249 15.8328C13.263 16.0331 14.3574 16.4307 15.3586 17.0077C15.5717 17.1266 15.7335 17.3198 15.813 17.5505C15.8926 17.7812 15.8843 18.0331 15.7897 18.2581C15.694 18.4578 15.5585 18.6359 15.3916 18.7814C15.2247 18.9269 15.0298 19.0368 14.8189 19.1045C14.608 19.1721 14.3855 19.1959 14.1651 19.1746C13.9447 19.1532 13.7309 19.0871 13.5369 18.9803C12.5171 18.2987 11.402 17.772 10.2278 17.4173C8.94531 16.9607 7.54149 16.9798 6.27193 17.4712C5.28026 17.8916 5.43117 17.6652 5.62519 18.7431C5.62519 18.9372 5.74376 19.0126 5.98089 18.9695C7.05141 18.7912 8.14405 18.7912 9.21457 18.9695C11.2752 19.4097 13.2587 20.1544 15.0999 21.1792C16.5874 21.9768 18.1395 22.8607 19.821 23.5074C20.5755 23.7665 21.3781 23.8549 22.1709 23.7661C22.3541 23.7661 22.5373 23.6152 22.5373 23.4643C22.5373 23.3134 22.311 23.3673 22.1816 23.3457C20.7311 23.2184 19.3384 22.7171 18.1395 21.8906C17.6839 21.5806 17.3065 21.169 17.0372 20.6883C16.7678 20.2076 16.6138 19.6708 16.5874 19.1204C16.5614 18.9539 16.5688 18.784 16.6091 18.6204C16.6494 18.4568 16.7218 18.3028 16.8221 18.1674C16.9223 18.0321 17.0485 17.918 17.1933 17.8317C17.338 17.7455 17.4985 17.6889 17.6653 17.6652C18.0466 17.6252 18.4296 17.7247 18.7432 17.9455C19.5408 18.4198 20.2199 19.0234 21.0391 19.4977C21.5514 19.8149 22.1525 19.9586 22.7529 19.9073C22.9793 19.9073 23.1733 19.7564 23.2056 19.5192C23.2202 19.4115 23.1956 19.3022 23.1362 19.2111C23.0768 19.1201 22.9867 19.0535 22.8823 19.0234L21.7397 18.5383C21.4487 18.4198 21.0283 18.3659 21.0283 17.9671C21.0283 17.5682 21.4594 17.4604 21.7828 17.3203H21.9445C22.5031 17.2085 23.0782 17.2085 23.6368 17.3203C24.193 17.439 24.7655 17.4609 25.3291 17.385C25.4557 17.3689 25.5716 17.3055 25.6536 17.2076C25.7355 17.1096 25.7775 16.9844 25.771 16.8568C25.8522 15.8094 25.7759 14.7557 25.5447 13.7309C25.4908 13.5477 25.4476 13.5261 25.286 13.5908C24.6711 13.8097 24.0354 13.965 23.3889 14.0543C21.6395 14.296 19.8591 13.9551 18.3228 13.0842C16.6628 12.1464 15.0783 11.0578 13.3537 10.2386C11.848 9.52032 10.2129 9.11338 8.54628 9.0421C8.43387 9.02265 8.31869 9.02598 8.20759 9.05191C8.0965 9.07783 7.99174 9.12581 7.89954 9.19301C7.43047 9.64179 7.04054 10.1666 6.7462 10.7452ZM7.27437 19.0557C6.91107 19.0846 6.55064 19.1423 6.19647 19.2282C5.86233 19.2282 5.85155 19.336 5.95934 19.5947C6.44997 20.902 7.20334 22.0948 8.17293 23.0997C9.14252 24.1045 10.3078 24.8999 11.5967 25.4369C13.4344 26.2369 15.4721 26.4587 17.4389 26.0728C18.8699 25.8161 20.2274 25.2495 21.4163 24.4129C21.5133 24.3374 21.675 24.2943 21.6211 24.1326C21.5672 23.9709 21.4271 24.0464 21.3193 24.0356C21.2115 24.0248 20.845 24.0356 20.5971 23.9817C19.6824 23.7746 18.8033 23.4332 17.9886 22.9685C16.1347 22.0307 14.3022 21.0283 12.3836 20.2091C10.7735 19.4906 9.03694 19.0986 7.27437 19.0557ZM5.26948 15.9191C5.2678 16.3585 5.293 16.7977 5.34494 17.2341C5.39883 17.5036 5.42039 17.6006 5.70064 17.4281C6.68637 16.8874 7.82528 16.6938 8.93432 16.8784C10.5511 17.0911 12.0928 17.69 13.4291 18.6246C13.6577 18.7907 13.9281 18.8898 14.2099 18.9107C14.4917 18.9317 14.7738 18.8736 15.0244 18.7431C15.1651 18.6922 15.2895 18.6042 15.3843 18.4884C15.479 18.3725 15.5408 18.2332 15.5628 18.0852C15.5849 17.9372 15.5666 17.786 15.5098 17.6475C15.4529 17.5091 15.3597 17.3886 15.24 17.2988C14.6532 16.9218 14.0188 16.6246 13.3537 16.4149C12.0028 16.1824 10.6969 15.7387 9.48405 15.0999C9.38098 15.0561 9.29212 14.9845 9.2274 14.8932C9.16268 14.8018 9.12465 14.6942 9.11756 14.5825C9.09834 14.4331 9.13666 14.2821 9.22474 14.16C9.31282 14.0379 9.44407 13.9538 9.59184 13.925C10.478 13.6863 11.4167 13.7315 12.2758 14.0543C12.8109 14.2861 13.3852 14.4142 13.9681 14.4316C14.4208 14.4316 14.5717 14.1621 14.3885 13.7417C14.1675 13.1528 13.7378 12.6657 13.1812 12.3728C12.4206 12.0197 11.6097 11.787 10.7775 11.6829C9.49483 11.4566 8.22291 11.1979 6.88632 11.047C6.77918 11.019 6.66546 11.0323 6.56765 11.0842C6.46984 11.1361 6.39508 11.2228 6.35816 11.3272C5.64533 12.7532 5.27268 14.3249 5.26948 15.9191ZM10.508 7.05878C11.0686 7.18812 11.532 7.2528 11.974 7.39292C13.8139 8.08455 15.5233 9.08319 17.0293 10.3464C17.8854 11.0728 18.8221 11.6985 19.821 12.2111C20.7257 12.6353 21.7239 12.8208 22.7206 12.7501C22.9038 12.7501 23.1733 12.7501 23.1194 12.4482C22.8284 10.7021 21.9768 9.10677 19.821 9.14989C19.7133 9.14989 19.5516 9.14989 19.5408 9.0421C19.53 8.93431 19.6917 8.90197 19.7995 8.88042C20.4751 8.77787 21.1279 8.55905 21.7289 8.23368C21.9768 8.08278 22.0199 7.96421 21.7289 7.78096C21.1295 7.3514 20.4907 6.97966 19.821 6.67073C18.0429 5.84062 16.0631 5.5412 14.119 5.80842C12.8426 5.97445 11.6138 6.39997 10.508 7.05878ZM8.35226 8.71873C9.16307 8.77584 9.96948 8.88384 10.7667 9.0421C12.7824 9.61215 14.6958 10.4961 16.4365 11.6614C17.9358 12.7691 19.6751 13.5077 21.5133 13.8172C22.7362 13.9181 23.9666 13.7602 25.1243 13.3537C25.2752 13.3537 25.4369 13.192 25.3614 13.0087C25.258 12.592 25.1023 12.1899 24.8979 11.8123C24.8473 11.8428 24.8003 11.879 24.7578 11.9201C24.3355 12.3344 23.8427 12.6702 23.3026 12.9117C22.9603 13.0461 22.5892 13.0906 22.2247 13.0411C20.9353 12.9748 19.6877 12.5614 18.6138 11.8446C16.997 10.7667 15.4987 9.41936 13.7633 8.44926C12.7563 7.86092 11.6356 7.49349 10.4757 7.37137C10.2204 7.31474 9.95313 7.36123 9.73196 7.50071C9.22598 7.8639 8.75342 8.27152 8.31992 8.71873H8.35226ZM23.238 11.532C23.4354 10.9223 23.7857 10.3733 24.2555 9.93739C24.7254 9.5015 25.2991 9.19327 25.9219 9.0421C25.2933 8.90702 24.7154 8.59787 24.2541 8.14995C23.7929 7.70204 23.4669 7.13342 23.3134 6.50905C23.1175 7.11029 22.7694 7.65061 22.3028 8.07748C21.8363 8.50434 21.2673 8.80324 20.651 8.94509C21.2725 9.10887 21.8395 9.43463 22.2939 9.88911C22.7484 10.3436 23.0742 10.9105 23.238 11.532ZM23.3997 12.2434C23.3997 12.3297 23.3997 12.5345 23.5829 12.4375C24.0521 12.3026 24.4551 11.9994 24.7147 11.5859C24.8656 11.2949 24.4991 11.0362 24.3805 10.7667C24.3559 10.7142 24.3271 10.6637 24.2943 10.6158C24.1973 10.4541 24.1003 10.4326 23.9817 10.6158C23.6488 11.1102 23.4484 11.6818 23.3997 12.2758V12.2434Z" fill="#24375B" stroke="#24375B" stroke-width="0.5" stroke-miterlimit="10"/>
</svg>
