<svg width="32" height="32" viewBox="0 0 32 32" fill="none" xmlns="http://www.w3.org/2000/svg">
<g clip-path="url(#clip0_417_42)">
<path d="M6.50362 14.6556L6.05728 14.6321C5.81831 14.6201 5.5929 14.5175 5.42702 14.3451C5.26114 14.1726 5.16728 13.9434 5.16459 13.7042C5.1411 12.7488 5.1411 11.8053 5.16459 10.8734C5.16259 10.7429 5.18782 10.6133 5.23866 10.4931C5.2895 10.3728 5.36484 10.2645 5.45989 10.175C5.55493 10.0855 5.66758 10.0167 5.79066 9.97318C5.91374 9.92962 6.04454 9.91219 6.17474 9.922C6.76203 9.922 7.34932 9.922 7.91312 9.922H8.30074C8.1529 8.69869 8.30197 7.45777 8.73533 6.30427C9.22866 5.00048 9.33437 5.07096 10.4855 5.24715C12.1465 5.54971 13.6684 6.37236 14.8314 7.59632C15.033 7.78282 15.2968 7.88751 15.5714 7.88997C15.9644 7.9384 16.3632 7.89462 16.7363 7.7621C17.1094 7.62958 17.4466 7.41195 17.7209 7.12648C18.9037 5.99644 20.437 5.30437 22.0669 5.16492C22.2615 5.13804 22.4596 5.17359 22.6326 5.26646C22.8057 5.35934 22.9449 5.50474 23.03 5.68174C23.5156 6.55157 23.7779 7.5282 23.7935 8.52424C23.7935 8.98233 23.7935 9.44042 23.7935 9.96898H24.3456C24.8389 9.96898 25.3322 9.96898 25.8256 9.96898C25.9652 9.96196 26.1047 9.98468 26.2349 10.0356C26.365 10.0866 26.4829 10.1646 26.5806 10.2646C26.6784 10.3646 26.7537 10.4841 26.8018 10.6154C26.8498 10.7467 26.8694 10.8867 26.8592 11.0261V13.4692C26.8856 13.6295 26.8735 13.7937 26.8238 13.9482C26.7741 14.1028 26.6883 14.2433 26.5735 14.3582C26.4587 14.473 26.3182 14.5588 26.1636 14.6085C26.009 14.6581 25.8448 14.6703 25.6846 14.6438H25.4497V25.6849C25.4819 25.8461 25.4738 26.0127 25.4261 26.1699C25.3785 26.3272 25.2928 26.4703 25.1766 26.5864C25.0604 26.7026 24.9173 26.7883 24.7601 26.836C24.6028 26.8836 24.4362 26.8917 24.2751 26.8595H7.76043C6.84425 26.8595 6.50362 26.5189 6.50362 25.6027C6.50362 22.079 6.50362 18.6374 6.50362 15.1607V14.6556ZM17.3568 26.143H17.7327H24.2399C24.7684 26.143 24.8389 26.143 24.8389 25.544V14.9727C24.8389 14.8553 24.8389 14.7378 24.8389 14.6086H17.3568V26.143ZM7.17313 14.6556C7.17313 14.7965 7.17313 14.9022 7.17313 15.008V25.6615C7.17313 26.1313 7.25535 26.2135 7.74868 26.2135H14.62V14.6556H7.17313ZM13.9622 10.5915H13.7626H6.25696C5.90458 10.5915 5.78712 10.7677 5.79887 11.0848V13.434C5.79887 13.8804 5.89283 13.9861 6.35092 13.9861H13.6099H13.9622V10.5915ZM18.0146 10.5915C18.0146 11.7661 18.0146 12.7528 18.0146 13.8099C18.0146 14.0683 18.2142 14.0096 18.3552 14.0096H25.6846C26.084 14.0096 26.2014 13.8921 26.2014 13.4927V11.1436C26.2014 10.615 26.131 10.5445 25.5906 10.5445H18.0146V10.5915ZM15.313 26.2018H16.6638V14.6673H15.313V26.2018ZM23.1358 7.87822L22.6189 6.17507C22.4897 5.82269 22.2548 5.74047 21.8907 5.78746C20.2142 6.06487 18.6773 6.89116 17.5212 8.13663C17.4516 8.19707 17.4058 8.28036 17.392 8.37155C17.392 8.74741 17.392 9.11153 17.392 9.54613C19.11 8.4573 21.1018 7.87888 23.1358 7.87822ZM14.5965 9.56962C14.7292 9.21028 14.7313 8.81573 14.6025 8.455C14.4736 8.09426 14.2221 7.79031 13.8918 7.59632C13.7714 7.52399 13.6574 7.44147 13.5511 7.34966C12.5425 6.52907 11.3195 6.01539 10.0274 5.86968C9.9442 5.85212 9.85824 5.85246 9.77521 5.87069C9.69218 5.88892 9.61397 5.92461 9.5458 5.97539C9.16504 6.54963 8.94222 7.21402 8.89978 7.90171C10.919 7.9022 12.8959 8.48099 14.5965 9.56962ZM17.3568 10.5915H14.6318C14.6318 11.6839 14.6318 12.741 14.6318 13.8099C14.6553 13.8549 14.6886 13.8941 14.7293 13.9246C14.7699 13.9551 14.8169 13.9761 14.8667 13.9861H17.3568V10.5915ZM18.179 9.88676H18.5901H22.478C23.0535 9.88676 23.1475 9.7928 23.1475 9.21725C23.1533 9.11162 23.1533 9.00574 23.1475 8.90011C23.1475 8.60646 22.9948 8.45377 22.6777 8.50075C22.0551 8.58297 21.4209 8.62995 20.7983 8.77091C19.8754 9.01284 18.9929 9.38879 18.179 9.88676ZM13.6921 9.88676V9.7928C12.4059 9.04398 10.9612 8.60934 9.47532 8.52424C8.97025 8.52424 8.88803 8.52424 8.85279 9.0763C8.84104 9.18561 8.84104 9.29587 8.85279 9.40518C8.85279 9.83978 8.97025 9.91025 9.41659 9.91025H13.6921V9.88676ZM15.313 9.88676H16.6638V8.52424H15.313V9.88676Z" fill="#24375B" stroke="#24375B" stroke-width="0.25" stroke-miterlimit="10"/>
</g>
<defs>
<clipPath id="clip0_417_42">
<rect width="22" height="22.0117" fill="white" transform="translate(5 5)"/>
</clipPath>
</defs>
</svg>
