<svg width="32" height="32" viewBox="0 0 32 32" fill="none" xmlns="http://www.w3.org/2000/svg">
<path d="M6.43836 13.7715L6.37256 24.7386C6.37256 24.7386 7.61184 26.0985 12.1303 26.0985C16.6487 26.0985 19.5331 26.0985 21.3865 25.4186C23.24 24.7386 27.3526 22.951 27.3526 22.951L27.901 12.5322C26.4031 13.3179 24.8444 13.9818 23.24 14.5173C20.8395 15.141 18.3805 15.5122 15.903 15.6249C14.0927 15.7596 12.2727 15.6675 10.4852 15.3508C9.02858 15.1587 7.64009 14.6168 6.43836 13.7715Z" stroke="#24375B" stroke-miterlimit="10"/>
<path d="M6.43848 24.5081C6.43848 24.5081 7.64486 21.8651 8.56609 22.4134C9.48733 22.9618 9.72861 23.6417 10.1454 23.3676C10.5621 23.0934 11.0666 22.2708 11.8891 23.0276C12.7117 23.7843 13.6768 24.7823 14.258 23.9159C14.8393 23.0495 16.1773 21.9638 16.4514 22.4792C16.7256 22.9947 16.3089 23.9049 17.7894 23.6856C19.27 23.4663 18.1952 22.6547 19.5003 22.7534C20.8054 22.8521 21.1783 23.9598 21.935 23.5101C22.6917 23.0605 22.0995 21.4922 23.1304 21.5251C23.7869 21.6354 24.4501 21.7014 25.1154 21.7225C25.8597 21.6943 26.5971 21.569 27.3089 21.3496" stroke="#24375B" stroke-miterlimit="10"/>
<path d="M6 13.1581C6 13.1581 7.29412 12.851 7.46959 12.0614C7.64506 11.2718 9.21336 8.67258 10.1127 9.868L11.001 11.1073" stroke="#24375B" stroke-miterlimit="10"/>
<path d="M9.35596 14.6376C9.35596 14.6376 10.2114 9.86693 11.6481 10.832L13.1286 11.841L13.5015 15.2189" stroke="#24375B" stroke-miterlimit="10"/>
<path d="M14.3239 15.1318C14.3239 15.1318 14.2581 11.1288 15.4206 11.063C16.5831 10.9972 17.0986 10.9863 17.5482 11.4688C17.9979 11.9514 18.2611 15.0002 18.2611 15.0002" stroke="#24375B" stroke-miterlimit="10"/>
<path d="M22.4508 14.1226C22.4508 14.1226 21.9353 9.83448 20.4986 10.4815C19.062 11.1286 18.4697 15.4606 18.4697 15.4606" stroke="#24375B" stroke-miterlimit="10"/>
<path d="M10.4526 10.251C10.4526 10.251 10.8584 8.91301 11.5493 8.94591C12.2403 8.97881 13.1944 10.251 13.1944 10.251" stroke="#24375B" stroke-miterlimit="10"/>
<path d="M12.4048 11.2389C12.4048 11.2389 13.1944 9.31964 13.7757 9.38544C14.3569 9.45125 15.015 11.3815 15.015 11.3815" stroke="#24375B" stroke-miterlimit="10"/>
<path d="M15.2124 11.1071C15.2124 11.1071 16.7259 9.64844 17.7568 9.64844C18.4848 9.73462 19.154 10.0907 19.6321 10.6464" stroke="#24375B" stroke-miterlimit="10"/>
<path d="M21.8257 11.6884C21.8257 11.6884 22.5495 9.31953 23.5475 9.64854C24.5455 9.97755 25.5655 13.0264 25.5655 13.0264" stroke="#24375B" stroke-miterlimit="10"/>
<path d="M28.0001 11.9291C28.0001 11.9291 26.355 8.43059 25.4667 8.70477C24.9091 8.89288 24.443 9.28456 24.1616 9.80148" stroke="#24375B" stroke-miterlimit="10"/>
<path d="M17.0986 9.46163C17.2157 9.14934 17.428 8.88177 17.7055 8.69677C17.983 8.51176 18.3117 8.41869 18.645 8.43072C19.7417 8.52943 20.2243 10.2074 20.2243 10.2074" stroke="#24375B" stroke-miterlimit="10"/>
<path d="M14.0498 9.28558C14.0498 9.28558 14.6969 7.73922 15.5633 8.28758C16.0477 8.59906 16.4931 8.96723 16.8903 9.38429" stroke="#24375B" stroke-miterlimit="10"/>
<path d="M20.2246 10.4488C20.2246 10.4488 21.2775 7.7838 22.2755 8.01411C23.0143 8.25703 23.6915 8.6574 24.2605 9.18759" stroke="#24375B" stroke-miterlimit="10"/>
</svg>
