<svg width="32" height="32" viewBox="0 0 32 32" fill="none" xmlns="http://www.w3.org/2000/svg">
<path d="M18.1583 6.00013L17.9714 5.98114C17.9713 5.98143 17.9713 5.98172 17.9713 5.98202C17.9712 5.98231 17.9712 5.9826 17.9712 5.98289L18.1572 6.00112M18.1583 6.00013C18.158 6.00046 18.1576 6.00079 18.1572 6.00112M18.1583 6.00013C18.2732 5.89621 18.3897 5.79389 18.5076 5.6932L18.1572 6.00112M18.1583 6.00013L18.4688 6.03165L18.1572 6.00112M17.9525 6.18953C17.8139 7.93851 18.1739 9.58982 18.8879 11.1636L18.8885 11.165C19.2639 11.986 19.7664 12.7383 20.243 13.4517C20.3816 13.6591 20.5179 13.8633 20.6484 14.0649L20.6486 14.0652C21.5792 15.5012 22.177 16.9948 22.1078 18.6722L22.1064 18.7054L22.1094 18.7384C22.1162 18.8122 22.1323 18.8848 22.1573 18.9545L22.4687 19.8224L23.0262 19.088C23.2478 18.7961 23.3676 18.4018 23.4196 17.9785C23.5616 18.7097 23.5154 19.4597 23.287 20.2309L23.1425 19.7881L22.5638 20.4997C22.5337 20.5367 22.5087 20.5634 22.4883 20.5822C22.4866 20.5837 22.485 20.5851 22.4835 20.5865C22.1596 20.5077 21.8425 20.5777 21.6703 20.6157C21.6413 20.6221 21.6164 20.6276 21.5962 20.6313L21.5867 20.6331L21.5772 20.6352C21.4167 20.6714 21.2508 20.6765 21.0884 20.6502C20.8814 20.6096 20.6845 20.6006 20.5133 20.5977C20.4499 20.5966 20.3929 20.5963 20.3394 20.5959C20.2344 20.5953 20.1431 20.5948 20.0436 20.5887L20.0419 20.5886C20.0382 20.5884 20.0339 20.5882 20.0292 20.5879C19.9548 20.5831 19.7628 20.5709 19.5788 20.6489C19.4132 20.5659 19.2371 20.5207 19.0739 20.503C18.8593 20.4797 18.6288 20.4987 18.4155 20.5646C18.1543 20.3553 17.8914 20.1543 17.6337 19.9572C17.5954 19.9279 17.5573 19.8987 17.5192 19.8696C16.8474 19.3553 16.2139 18.8608 15.6675 18.2784L15.6673 18.2782C14.3116 16.8347 13.469 15.3114 13.7747 13.3446L13.7748 13.3441C13.9539 12.1837 14.3424 11.0654 14.9212 10.0438L14.9214 10.0435C15.7314 8.61106 16.7538 7.31187 17.9525 6.18953ZM22.5419 20.6024L22.5408 20.602L22.5419 20.6024ZM22.4604 20.8527C22.4609 20.8465 22.4615 20.843 22.4617 20.8428C22.4619 20.8426 22.4617 20.8457 22.4604 20.8527Z" stroke="#24375B"/>
<path d="M14.9102 20.1475C16.0281 21.0869 17.3119 21.828 18.2798 22.9452C18.7442 23.4852 19.1098 24.081 19.1974 24.8148C19.2637 25.3588 19.1894 25.5379 18.6805 25.6978C16.0268 26.5304 13.5667 26.2067 11.376 24.4034C11.1427 24.2179 10.9431 23.9935 10.7862 23.74C10.828 23.5768 10.7285 23.4779 10.6316 23.3678C10.4034 23.1084 10.1566 22.8384 10.0637 22.5113C9.97868 22.1841 9.84159 21.8728 9.65771 21.5891C9.56218 21.4465 9.43214 21.2892 9.46731 21.0849C9.53365 21.0789 9.64179 21.0955 9.65771 21.0643C9.78576 20.8142 9.9357 20.8965 10.1082 21.0066C10.156 21.0371 10.2376 21.0179 10.3032 21.0179C11.8929 21.0179 13.482 21.0179 15.0707 21.0179C15.1689 21.0179 15.3255 21.0842 15.3481 20.927C15.3706 20.7698 15.1769 20.6484 15.1072 20.6696C14.883 20.7359 14.9254 20.576 14.9082 20.4798C14.9001 20.3692 14.9008 20.258 14.9102 20.1475Z" fill="#24375B"/>
<path d="M14.908 20.1528C14.8993 20.2632 14.8993 20.3741 14.908 20.4845C14.9226 20.5807 14.8802 20.7399 15.1071 20.6742C15.1734 20.653 15.3724 20.7777 15.3479 20.9317C15.3233 21.0856 15.1688 21.0225 15.0706 21.0225C13.4814 21.0265 11.8922 21.0265 10.3031 21.0225C10.2367 21.0225 10.1558 21.0418 10.108 21.0113C9.93552 20.9011 9.78559 20.8189 9.65754 21.069C9.64162 21.1002 9.53281 21.0836 9.46713 21.0896H9.46448C9.43396 20.9064 9.53082 20.7014 9.37491 20.5011C9.30326 20.718 9.33842 20.8991 9.33975 21.0823C9.33137 21.0901 9.32251 21.0974 9.31321 21.1041C9.00471 20.2835 8.9596 19.4309 9.02727 18.5671C9.16659 16.7938 9.98462 15.3123 11.0309 13.9283C11.5124 13.2823 12.0465 12.6772 12.6278 12.1191C12.419 12.7311 12.2688 13.3616 12.1793 14.002C11.9285 15.9406 12.6291 17.5494 13.8638 18.9778C14.1444 19.3029 14.4529 19.6028 14.7448 19.9179C14.8092 19.9876 14.914 20.0327 14.908 20.1528Z" fill="#24375B"/>
<path d="M19.1591 21.8888C19.3017 21.7601 19.4955 21.5239 19.3654 21.4317C19.2022 21.3156 19.1053 20.9009 18.7643 21.1537C18.6648 21.2286 18.6316 21.1723 18.5932 21.0966C18.5547 21.021 18.6111 20.9951 18.6715 20.9533C19.0158 20.7171 19.3807 20.9281 19.6441 21.3593C19.662 21.0827 19.8312 21.0814 20.0163 21.094C20.344 21.1139 20.6717 21.08 21.0021 21.1484C21.2305 21.1866 21.4642 21.1801 21.6901 21.1291C21.9197 21.0853 22.1499 21.013 22.3987 21.0867C22.6156 21.153 22.7928 21.0203 22.9546 20.8213C23.0177 21.0104 22.6806 21.4184 23.2154 21.228C23.096 21.707 22.806 22.0633 22.528 22.4096C22.2229 22.7904 21.9615 23.2143 21.5687 23.5222C21.4579 23.6084 21.377 23.7212 21.2284 23.769C21.0957 23.8121 20.9756 23.9149 21.0725 24.0941C20.8734 24.2228 20.695 24.3866 20.4661 24.4656C20.3241 24.514 20.2093 24.4735 20.2166 24.309C20.2597 23.3523 19.7462 22.6418 19.1869 21.9498C19.1753 21.9306 19.1659 21.9101 19.1591 21.8888Z" fill="#24375B"/>
<path d="M9.46488 21.0929C9.42972 21.2973 9.55975 21.4545 9.65529 21.5971C9.83933 21.8805 9.97665 22.1917 10.062 22.5187C10.1542 22.8451 10.401 23.1158 10.6292 23.3772C10.7261 23.4873 10.8283 23.5861 10.7838 23.7493C10.0811 23.0051 9.57612 22.0966 9.31494 21.1069C9.32424 21.1001 9.3331 21.0928 9.34148 21.085L9.46488 21.0923V21.0929Z" fill="#24375B"/>
<path d="M9.46361 21.0875L9.33888 21.0802C9.33888 20.8991 9.30239 20.716 9.37404 20.499C9.53393 20.6994 9.43442 20.9044 9.46361 21.0875Z" fill="#24375B"/>
</svg>
