<svg width="32" height="32" viewBox="0 0 32 32" fill="none" xmlns="http://www.w3.org/2000/svg">
<path d="M21.8794 18.4617C22.0632 18.3393 22.2352 18.2168 22.411 18.1029C22.5867 17.989 22.5984 17.8243 22.5984 17.6399C22.5959 14.3502 22.5959 11.0603 22.5984 7.77014C22.5984 7.53315 22.5929 7.29555 22.5984 7.05855C22.6077 6.80192 22.7067 6.55667 22.8781 6.36542C23.0495 6.17418 23.2825 6.04901 23.5365 6.01168C23.7906 5.97434 24.0497 6.02719 24.2689 6.16105C24.4881 6.2949 24.6534 6.50131 24.7362 6.7444C24.7842 6.90601 24.8048 7.07447 24.7974 7.24288C24.7974 10.693 24.7956 14.1428 24.7919 17.5922C24.7919 17.869 24.8807 18.0398 25.1147 18.1911C26.059 18.8035 26.5678 19.7147 26.8238 20.7802C27.1655 22.2028 27.0192 23.5709 26.3057 24.8624C26.1409 25.1559 25.9379 25.4263 25.7019 25.6664C24.5727 26.83 22.9823 26.8734 21.8011 25.7669C21.6614 25.6358 21.6173 25.653 21.512 25.7999C21.1574 26.2996 20.6596 26.5636 20.0496 26.5648C15.6437 26.5697 11.2374 26.5697 6.83072 26.5648C5.80498 26.5648 5.00704 25.754 5.00459 24.7221C4.99847 22.5176 4.99847 20.313 5.00459 18.1084C5.00459 17.4868 5.27404 16.9871 5.77742 16.624C5.88091 16.5493 5.92133 16.5052 5.84478 16.379C5.76424 16.2303 5.72631 16.0623 5.73517 15.8934C5.73517 15.4115 5.73088 14.9295 5.73517 14.4476C5.74252 13.8352 6.21283 13.3251 6.82031 13.3526C7.68928 13.3918 8.42843 13.0844 9.13206 12.6233C9.91101 12.1132 10.6275 11.5136 11.4322 11.0415C12.0109 10.7028 12.6165 10.4426 13.2969 10.4095C14.0562 10.3728 14.7335 10.6373 15.379 11.0084C16.0942 11.4212 16.736 11.9423 17.4164 12.4065C17.6742 12.5829 17.9394 12.75 18.2125 12.9056C18.7402 13.2164 19.345 13.3716 19.9572 13.3532C20.6706 13.3336 21.128 13.8089 21.1305 14.5253C21.1305 14.9461 21.1305 15.3674 21.1305 15.7881C21.1427 16.01 21.0971 16.2314 20.9982 16.4305C20.97 16.4831 20.937 16.5254 21.0154 16.5793C21.6639 17.011 21.9033 17.6375 21.8623 18.3944C21.8653 18.4175 21.871 18.4401 21.8794 18.4617ZM13.4212 24.3664C15.4133 24.3664 17.406 24.3664 19.3981 24.37C19.5946 24.37 19.6712 24.337 19.67 24.1128C19.6593 22.3234 19.6593 20.5339 19.67 18.7441C19.67 18.5512 19.635 18.4844 19.425 18.485C15.4331 18.4916 11.4407 18.4916 7.448 18.485C7.23734 18.485 7.19999 18.5499 7.20305 18.7434C7.2104 20.5328 7.2104 22.3224 7.20305 24.1122C7.20305 24.3351 7.27654 24.3706 7.47434 24.37C9.45172 24.3639 11.4365 24.3664 13.4212 24.3664ZM24.0601 12.4898V7.25758C24.0648 7.18877 24.0629 7.11967 24.0546 7.0512C24.0154 6.85402 23.893 6.73828 23.6872 6.74073C23.4814 6.74318 23.3632 6.8632 23.3296 7.06039C23.3217 7.13648 23.3202 7.21309 23.3253 7.28942C23.3253 10.7616 23.3253 14.2336 23.3253 17.7055C23.3253 18.1733 23.1379 18.5285 22.7306 18.7667C22.3098 19.0078 21.9662 19.3635 21.7398 19.7925C20.8696 21.452 20.8825 23.1073 21.8623 24.7154C22.2597 25.3707 22.8495 25.8128 23.6511 25.8287C24.5053 25.8459 25.1061 25.3749 25.5427 24.6909C26.2488 23.5886 26.408 22.3743 26.1441 21.1054C25.9322 20.0882 25.4588 19.2364 24.536 18.6804C24.1869 18.4697 24.0595 18.1194 24.0595 17.7195C24.0624 15.9763 24.0626 14.233 24.0601 12.4898ZM20.392 22.8391C20.392 23.4347 20.392 24.0304 20.392 24.626C20.392 24.9757 20.2695 25.0969 19.9265 25.0969C15.599 25.0969 11.2699 25.0969 6.93911 25.0969C6.59373 25.0969 6.47431 24.9744 6.47431 24.6254C6.47431 22.4988 6.47431 20.3722 6.47431 18.2456C6.47431 17.8781 6.59005 17.763 6.95075 17.763C11.2721 17.763 15.5937 17.763 19.9155 17.763C20.2756 17.763 20.392 17.8806 20.3926 18.245C20.3926 19.2701 20.3926 20.2952 20.3926 21.3204C20.3793 21.4178 20.3935 21.5171 20.4336 21.607C20.4863 21.035 20.5683 20.4936 20.8292 20.0294C21.128 19.4985 21.1654 18.951 21.1354 18.376C21.1354 18.3227 21.1354 18.2688 21.1354 18.2156C21.1354 17.4758 20.6749 17.0184 19.9327 17.0184H6.92319C6.18833 17.0184 5.72966 17.4807 5.72966 18.2241C5.72966 20.3512 5.72966 22.478 5.72966 24.6046C5.72966 25.3952 6.17425 25.8428 6.95932 25.8428H19.9008C19.97 25.8428 20.0386 25.8428 20.1072 25.8428C20.3211 25.8249 20.5254 25.7462 20.6961 25.616C20.8667 25.4858 20.9966 25.3095 21.0705 25.1079C21.091 25.0627 21.1012 25.0135 21.1004 24.9638C21.0995 24.9141 21.0876 24.8653 21.0656 24.8207C20.722 24.2016 20.5285 23.5396 20.392 22.8391ZM13.4243 16.2915H19.8592C19.9278 16.2944 19.9965 16.2934 20.0649 16.2884C20.324 16.2584 20.4324 16.0649 20.403 15.6895C20.384 15.4262 20.1819 15.5548 20.0735 15.5535C19.2162 15.5407 18.3637 15.5486 17.5089 15.545C17.2572 15.545 17.0998 15.3925 17.1053 15.1775C17.1108 14.9699 17.2639 14.8334 17.504 14.8254C17.5879 14.8254 17.6717 14.8254 17.7556 14.8254C18.5726 14.8254 19.3895 14.8254 20.2052 14.8254C20.2872 14.8254 20.3969 14.8658 20.4024 14.7115C20.4165 14.3569 20.4097 14.0759 19.8635 14.0771C15.5817 14.0857 11.2995 14.0873 7.01689 14.082C6.55576 14.082 6.45349 14.1928 6.45839 14.6484C6.45839 14.7899 6.50248 14.8322 6.64211 14.8322C7.16876 14.8248 7.69602 14.8322 8.22267 14.8322C8.61153 14.8322 9.00101 14.8322 9.39048 14.8322C9.47194 14.8275 9.55239 14.852 9.61753 14.9011C9.68268 14.9502 9.7283 15.0208 9.74628 15.1004C9.7678 15.1734 9.76417 15.2516 9.73596 15.3223C9.70776 15.3931 9.65661 15.4523 9.59073 15.4905C9.50439 15.5517 9.40702 15.5486 9.30414 15.5486C8.42659 15.5486 7.54843 15.5486 6.67089 15.5486C6.59312 15.5486 6.48717 15.4972 6.46145 15.6503C6.38919 16.0863 6.5527 16.2915 6.98994 16.2915H13.4243ZM17.4317 13.3355C16.9418 12.9858 16.4794 12.6515 16.0134 12.3208C15.5602 11.998 15.1028 11.6833 14.5994 11.4408C13.8211 11.066 13.0476 11.0629 12.2687 11.4408C11.2436 11.9386 10.404 12.7102 9.40151 13.3355H17.4317Z" fill="#24375B"/>
<path d="M13.4561 19.9598C14.6319 19.9598 15.8074 19.9598 16.9828 19.9598C17.3459 19.9598 17.4641 20.0774 17.4647 20.4375C17.4647 21.1026 17.4647 21.7678 17.4647 22.4333C17.4647 22.7768 17.3423 22.8981 16.9926 22.8981H9.87058C9.52274 22.8981 9.40149 22.7756 9.40088 22.432C9.40088 21.7592 9.40088 21.0856 9.40088 20.4112C9.40088 20.0823 9.52703 19.9586 9.86139 19.958C11.0592 19.9592 12.2574 19.9598 13.4561 19.9598ZM13.4328 20.6892C12.4028 20.6892 11.3728 20.6929 10.3427 20.6855C10.1731 20.6855 10.118 20.7278 10.1241 20.9017C10.1376 21.2691 10.1333 21.6366 10.1241 22.004C10.1241 22.1356 10.1676 22.173 10.295 22.173C12.3856 22.1701 14.4761 22.1701 16.5664 22.173C16.6944 22.173 16.7403 22.135 16.7378 22.004C16.7305 21.6366 16.7256 21.2691 16.7378 20.9017C16.7446 20.7272 16.6889 20.6843 16.5192 20.6855C15.4923 20.691 14.4622 20.6874 13.4328 20.6874V20.6892Z" fill="#24375B"/>
<path d="M13.4347 15.5462H11.0078C10.9393 15.5514 10.8704 15.5485 10.8026 15.5377C10.6189 15.4942 10.5075 15.3748 10.5093 15.1806C10.5111 14.9865 10.6232 14.8689 10.8094 14.8297C10.8851 14.8201 10.9616 14.8178 11.0378 14.823H15.823C15.8762 14.823 15.9301 14.823 15.9834 14.823C16.2057 14.8352 16.3508 14.9755 16.3582 15.1757C16.3625 15.3858 16.2106 15.5432 15.976 15.5432C15.4341 15.5487 14.8921 15.5432 14.3502 15.5432L13.4347 15.5462Z" fill="#24375B"/>
</svg>
