<svg width="32" height="32" viewBox="0 0 32 32" fill="none" xmlns="http://www.w3.org/2000/svg">
<path d="M7 5.90379C7 5.90379 14.5134 4.94851 16.1127 5.00218C17.712 5.05585 25 5.00218 25 5.00218L24.6029 7.02007C24.6029 7.02007 23.873 7.13814 24.2165 7.30987L24.5492 7.47087C24.5492 7.47087 22.864 16.3045 22.746 17.7643C22.6279 19.224 22.0161 24.0111 22.0161 24.0111C21.0102 24.844 19.8941 25.5338 18.6995 26.0612C17.0392 26.6239 15.2398 26.6239 13.5796 26.0612C11.7871 25.5031 11.8945 25.224 10.4884 25.4494L9.08229 25.6748C9.45342 24.9469 9.57415 24.1169 9.42576 23.3135C9.19363 21.1049 9.19363 18.878 9.42576 16.6694L9.58676 16.1113C9.58676 16.1113 9.02862 15.0058 8.57782 14.2544C8.04526 12.7549 7.65007 11.2101 7.39714 9.63903C7.39714 9.47803 7.34347 8.45835 7.34347 8.45835C7.34347 8.45835 8.18068 8.07195 7.67621 8.01828C7.17174 7.96461 7 5.90379 7 5.90379Z" stroke="#24375B" stroke-width="1.2" stroke-miterlimit="10"/>
<path d="M8.07324 8.99518C8.07324 8.99518 14.1484 8.09357 15.8872 8.14723C17.626 8.2009 23.2611 7.86816 23.2611 7.86816" stroke="#24375B" stroke-width="1.2" stroke-linecap="round" stroke-linejoin="round"/>
<path d="M11.2183 14.5003C11.2183 14.5003 17.4115 14.2535 18.2487 14.2535C19.2337 14.2984 20.2201 14.2044 21.1789 13.9744L21.5116 13.6953C21.2151 14.8741 21.0283 16.0778 20.9535 17.291C20.9535 18.6434 20.61 21.2302 20.61 21.2302C18.9794 22.0203 17.1947 22.4418 15.3828 22.4645C14.0586 22.3273 12.7568 22.0244 11.5081 21.5629C11.5081 21.5629 11.39 17.7418 11.5081 16.9583C11.5203 16.1298 11.4229 15.3033 11.2183 14.5003Z" stroke="#24375B" stroke-width="1.2" stroke-linecap="round" stroke-linejoin="round"/>
</svg>
